<svg xmlns:dc="http://purl.org/dc/elements/1.1/" xmlns:cc="http://creativecommons.org/ns#" xmlns:rdf="http://www.w3.org/1999/02/22-rdf-syntax-ns#" xmlns:svg="http://www.w3.org/2000/svg" xmlns="http://www.w3.org/2000/svg" xmlns:sodipodi="http://sodipodi.sourceforge.net/DTD/sodipodi-0.dtd" xmlns:inkscape="http://www.inkscape.org/namespaces/inkscape" width="64" height="64" viewBox="0 0 16.933333 16.933334" version="1.1" id="svg8" inkscape:version="0.92.3 (2405546, 2018-03-11)" sodipodi:docname="09-Online consulting.svg" inkscape:export-filename="/home/wanzabuyumna/@WANZ_DESIGN/NICON STUDIO MAGANG/Style Line/Style Line/Icon 8/Icon 8.png" inkscape:export-xdpi="96" inkscape:export-ydpi="96">
<defs id="defs2"></defs>
<sodipodi:namedview id="base" pagecolor="#ffffff" bordercolor="#959595" borderopacity="1" inkscape:pageopacity="0" inkscape:pageshadow="2" inkscape:zoom="11.313709" inkscape:cx="26.666433" inkscape:cy="32.23972" inkscape:document-units="px" inkscape:current-layer="layer1" inkscape:document-rotation="0" showgrid="false" units="px" inkscape:window-width="1920" inkscape:window-height="1040" inkscape:window-x="0" inkscape:window-y="0" inkscape:window-maximized="1" inkscape:pagecheckerboard="0"></sodipodi:namedview>
<metadata id="metadata5">
<rdf:rdf>
<cc:work rdf:about="">
<dc:format>image/svg+xml</dc:format>
<dc:type rdf:resource="http://purl.org/dc/dcmitype/StillImage"></dc:type>
</cc:work>
</rdf:rdf>
</metadata>
<g inkscape:label="09-Online consulting" inkscape:groupmode="layer" id="layer1">
<path style="color:#000000;font-style:normal;font-variant:normal;font-weight:normal;font-stretch:normal;font-size:medium;line-height:normal;font-family:sans-serif;font-variant-ligatures:normal;font-variant-position:normal;font-variant-caps:normal;font-variant-numeric:normal;font-variant-alternates:normal;font-feature-settings:normal;text-indent:0;text-align:start;text-decoration:none;text-decoration-line:none;text-decoration-style:solid;text-decoration-color:#000000;letter-spacing:normal;word-spacing:normal;text-transform:none;writing-mode:lr-tb;direction:ltr;text-orientation:mixed;dominant-baseline:auto;baseline-shift:baseline;text-anchor:start;white-space:normal;shape-padding:0;clip-rule:nonzero;display:inline;overflow:visible;visibility:visible;opacity:1;isolation:auto;mix-blend-mode:normal;color-interpolation:sRGB;color-interpolation-filters:linearRGB;solid-color:#000000;solid-opacity:1;vector-effect:none;fill:#000000;fill-opacity:1;fill-rule:nonzero;stroke:none;stroke-width:2.00000095;stroke-linecap:round;stroke-linejoin:round;stroke-miterlimit:4;stroke-dasharray:none;stroke-dashoffset:0;stroke-opacity:1;color-rendering:auto;image-rendering:auto;shape-rendering:auto;text-rendering:auto;enable-background:accumulate" d="M 27,2 C 21.576963,1.9998866 17.122567,5.8792812 16.185547,10.998047 H 6.0019531 C 3.7681011,10.998047 2,12.801298 2,15 v 36.998047 c 0,2.233852 1.8032508,4 4.0019531,4 H 22.822266 L 22.152344,60 H 19 c -1.333682,0 -1.333682,2 0,2 h 24 c 1.333644,0 1.333644,-2 0,-2 h -3.150391 l -0.669921,-4.001953 h 16.818359 c 2.198702,0 4.001953,-1.762633 4.001953,-4 V 30.726562 c 0.325417,-0.514393 0.593504,-1.117683 0.759766,-1.738281 l 1.033203,-3.867187 c 0.855874,-3.194041 -1.021565,-6.482233 -4.244141,-7.345703 0.188977,-0.705335 0.117008,-1.405296 -0.167969,-2.023438 C 58.906881,15.199575 60,13.726804 60,12.003906 V 6.0019531 C 60,3.8032508 58.231899,2 55.998047,2 H 45.992188 C 43.793521,2 41.999962,3.7759246 42,6.0019531 V 11 H 37.820312 C 36.885107,5.8803652 32.423716,2.000189 27,2 Z m 20,6 c 0.552302,0 1,0.4476976 1,1 0,0.5522646 -0.447698,1 -1,1 -0.552302,0 -1,-0.4477354 -1,-1 0,-0.5523024 0.447698,-1 1,-1 z m 4,0 c 0.552302,0 1,0.4476976 1,1 0,0.5522646 -0.447698,1 -1,1 -0.552265,0 -1,-0.4477354 -1,-1 0,-0.5523024 0.447735,-1 1,-1 z m 4,0 c 0.552265,0 1,0.4476976 1,1 0,0.5522646 -0.447735,1 -1,1 -0.552302,0 -1,-0.4477354 -1,-1 0,-0.5523024 0.447698,-1 1,-1 z M 6.0019531,13 h 9.9941409 v 1.533203 c -1.190816,0.691464 -2,1.984845 -2,3.466797 0,2.216844 1.804725,4.001953 4.001953,4.001953 h 0.914062 c 0.700271,1.413808 1.742833,2.603118 3.087891,3.5 v 0.496094 c -0.03779,0.0014 -0.08009,0.0042 -0.115234,0.01172 -0.104315,0.01134 -0.206861,0.04254 -0.306641,0.08789 l -4.066406,1.904297 -1.519531,0.714844 c -1.148375,0.551319 -2.286059,1.061246 -3.257813,1.824219 -0.971792,0.763011 -1.745459,1.782972 -1.986328,3.298828 L 8.3457031,47.001953 h -4.34375 v -32 c 0,-1.097953 0.8747591,-2.001084 2,-2.001953 z M 37.998047,13 H 42 v 6.001953 c 0.0076,0.88577 1.076921,1.325739 1.705078,0.701172 L 47.414062,16 h 4.417969 c -0.02646,0.07635 -0.05583,0.142216 -0.07813,0.224609 l -1.808594,6.761719 c -0.0076,0.02646 -0.179165,0.5938 -0.486328,1.322266 -0.289889,0.688365 -0.707086,1.469419 -1.066406,1.880859 -0.745096,0.0012 -1.504334,0.274381 -2.099609,0.798828 l -4.81836,3.757813 C 40.431796,30.021067 39.082347,29.225433 38.017578,28.712891 L 32.421875,26.095703 C 32.289592,26.034093 32.145966,26.001953 32,26.001953 L 32.001953,25.5 c 1.321021,-0.857388 2.37992,-2.082085 3.080078,-3.498047 h 0.91211 C 38.191065,22.001953 40,20.216844 40,18 40,16.521411 39.184441,15.227754 37.998047,14.535156 Z m -14.470703,0.322266 c 1.061291,0.402217 2.116259,0.679687 3.472656,0.679687 1.094249,0 2.343156,-0.215044 3.464844,-0.677734 0.73542,1.325102 2.033423,2.25248 3.53125,2.572265 V 18.0625 C 33.996094,21.917732 30.861165,25 27,25 23.100245,25 20,21.870828 20,18.0625 v -2.166016 c 1.47738,-0.300094 2.84238,-1.285626 3.527344,-2.574218 z M 17.996094,15.998047 18,18.0625 c 0,0.666671 0.06952,1.312026 0.208984,1.9375 h -0.210937 c -1.116359,0 -2,-0.908989 -2,-2.001953 0,-1.092963 0.88165,-2 1.998047,-2 z m 18,0 c 1.115452,0.0011 2.003906,0.907679 2.003906,2 0,1.092964 -0.889463,2 -2.005859,2 h -0.210938 c 0.138331,-0.624189 0.212891,-1.269858 0.212891,-1.935547 z m 18.527344,0.01172 c 0.127937,-0.01584 0.26042,-0.0124 0.390624,0.02539 0.520519,0.139465 0.85684,0.674752 0.708985,1.226563 l -0.775391,2.892578 c -0.09978,0.36737 0.01889,0.759662 0.302735,1.011719 0,0 0.258898,0.252068 0.470703,0.728515 0.243023,0.554381 0.449962,1.410327 0.11914,2.644531 -0.344693,1.289426 1.591006,1.807002 1.935547,0.517579 0.445569,-1.663559 0.192465,-3.023736 -0.207031,-3.935547 -0.234709,-0.535861 -0.449567,-0.80222 -0.556641,-0.957032 l 0.121094,-0.453124 c 2.157241,0.57804 3.397296,2.763067 2.826172,4.894531 l -1.033203,3.86914 c -0.483515,1.804573 -2.018374,2.968598 -3.828125,3.16211 -0.08617,-0.115276 -0.186323,-0.237104 -0.291016,-0.341797 l -4.24414,-4.244141 c -0.04195,-0.04195 -0.08311,-0.08217 -0.126953,-0.121093 0.415067,-0.604954 0.720735,-1.253249 0.96875,-1.841797 0.358677,-0.851302 0.572265,-1.56836 0.572265,-1.56836 l 1.8125,-6.773437 c 0.11074,-0.413858 0.450587,-0.685267 0.833985,-0.736328 z M 24,26.494141 c 0.941064,0.331842 1.945096,0.511718 3,0.511718 1.054715,0 2.060598,-0.17951 3,-0.509765 v 1.09375 c -0.802318,0.804548 -1.610498,1.60775 -2.414062,2.412109 H 26.412109 L 24,27.580078 Z m 24.361328,1.697265 c 0.261203,-0.0073 0.504547,0.0883 0.691406,0.275391 l 4.251954,4.251953 c 0.354897,0.354898 0.397549,0.978436 -0.0332,1.425781 l -7.80664,7.453125 c -1.098671,1.097726 -2.118141,1.450407 -3.027344,1.404297 -0.93702,-0.04762 -1.896818,-0.531582 -2.796875,-1.431641 -0.935962,-0.928176 -2.360469,0.451405 -1.417969,1.416016 0.246047,0.246047 0.509149,0.48173 0.777344,0.689453 -0.0029,1.111975 -0.0023,2.21741 -0.002,3.326172 h -8.140625 l -1.791016,-11.646484 0.941406,-0.923828 0.279297,0.279297 c 0.423458,0.423269 1.121379,0.38232 1.492188,-0.08789 l 3.853515,-4.814453 1.519532,0.710937 c 1.088089,0.524145 2.962087,1.652182 3.71289,2.257813 0.359811,0.291779 0.873091,0.298711 1.240235,0.01563 l 5.46289,-4.263672 c 0.253985,-0.222992 0.531653,-0.331711 0.792969,-0.337891 z m -26.570312,0.01953 2.794922,2.792968 -1.501954,1.501953 -2.857422,-3.5625 z m 10.423828,0 1.554687,0.726562 -2.853515,3.568359 -1.501954,-1.501953 z M 18.367188,29.8125 22.21875,34.625 c 0.370394,0.464315 1.061634,0.505075 1.484375,0.08789 l 0.302734,-0.302735 0.929688,0.929688 -1.794922,11.664062 h -3.763672 l 0.568359,-1.68164 c 0.22942,-0.647244 -0.253629,-1.31991 -0.986328,-1.324219 -0.447043,0.03817 -0.788228,0.315219 -0.910156,0.699219 l -0.783203,2.30664 H 10.380859 L 12.71875,34.171875 c 0.142866,-0.909884 0.555966,-1.507097 1.255859,-2.056641 0.697815,-0.54788 1.711303,-1.029308 2.875,-1.591796 z m 8.044921,2.191406 h 1.173829 l 1.011718,1.013672 -1.59375,1.5625 -1.583984,-1.583984 z M 58,32.685547 V 47.003906 H 40.998047 v -2.251953 c 0.432113,0.137575 0.878449,0.223039 1.337891,0.246094 1.54662,0.07861 3.120454,-0.556039 4.539062,-1.974609 l 7.832031,-7.484376 c 0.538016,-0.55971 0.827642,-1.259104 0.869141,-1.96289 C 56.455063,33.43255 57.26492,33.139863 58,32.685547 Z m -31.287109,4.257812 c 0.186708,0.05594 0.385594,0.05594 0.572265,0 l 1.644532,10.710938 -1.933594,1.933594 -1.935547,-1.933594 z M 17,38.003906 c -1.333682,0 -1.333682,2 0,2 h 4 c 1.333682,0 1.333682,-2 0,-2 z" transform="scale(0.26458334)" id="path860" inkscape:connector-curvature="0" sodipodi:nodetypes="cccccccccccccccccccccccccccccccccccccccccccccccccccccccccccccccccccccccccccccccccccccccccccccccccccccccccccccccccccccccccccccccccccccccccccccccccccccccccccccccccccccccccccccccccccccccccccccccccccccccccccccc"></path>
</g>
</svg>